<mxfile host="app.diagrams.net" agent="Mozilla/5.0 (Windows NT 10.0; Win64; x64; rv:133.0) Gecko/20100101 Firefox/133.0" version="24.9.0">
  <diagram id="C5RBs43oDa-KdzZeNtuy" name="Page-1">
    <mxGraphModel dx="1195" dy="1814" grid="1" gridSize="10" guides="1" tooltips="1" connect="1" arrows="1" fold="1" page="1" pageScale="1" pageWidth="827" pageHeight="1169" math="0" shadow="0">
      <root>
        <mxCell id="WIyWlLk6GJQsqaUBKTNV-0" />
        <mxCell id="WIyWlLk6GJQsqaUBKTNV-1" parent="WIyWlLk6GJQsqaUBKTNV-0" />
        <mxCell id="b_JIdyj_Jr2th4q7lOJ0-5" value="" style="edgeStyle=orthogonalEdgeStyle;rounded=0;orthogonalLoop=1;jettySize=auto;html=1;entryX=0.5;entryY=0;entryDx=0;entryDy=0;" edge="1" parent="WIyWlLk6GJQsqaUBKTNV-1" target="b_JIdyj_Jr2th4q7lOJ0-8">
          <mxGeometry relative="1" as="geometry">
            <mxPoint x="110" y="-790" as="sourcePoint" />
            <mxPoint x="110" y="-690" as="targetPoint" />
          </mxGeometry>
        </mxCell>
        <mxCell id="b_JIdyj_Jr2th4q7lOJ0-3" value="&lt;div&gt;Imprimir Menu de&amp;nbsp; Opciones&lt;/div&gt;" style="rounded=1;whiteSpace=wrap;html=1;absoluteArcSize=1;arcSize=14;strokeWidth=2;" vertex="1" parent="WIyWlLk6GJQsqaUBKTNV-1">
          <mxGeometry x="60" y="-890" width="100" height="100" as="geometry" />
        </mxCell>
        <mxCell id="b_JIdyj_Jr2th4q7lOJ0-73" value="" style="edgeStyle=orthogonalEdgeStyle;rounded=0;orthogonalLoop=1;jettySize=auto;html=1;" edge="1" parent="WIyWlLk6GJQsqaUBKTNV-1" source="b_JIdyj_Jr2th4q7lOJ0-6" target="b_JIdyj_Jr2th4q7lOJ0-71">
          <mxGeometry relative="1" as="geometry" />
        </mxCell>
        <mxCell id="b_JIdyj_Jr2th4q7lOJ0-6" value="&lt;div&gt;Inicio&lt;/div&gt;" style="strokeWidth=2;html=1;shape=mxgraph.flowchart.start_1;whiteSpace=wrap;" vertex="1" parent="WIyWlLk6GJQsqaUBKTNV-1">
          <mxGeometry x="60" y="-1150" width="100" height="60" as="geometry" />
        </mxCell>
        <mxCell id="b_JIdyj_Jr2th4q7lOJ0-10" value="" style="edgeStyle=orthogonalEdgeStyle;rounded=0;orthogonalLoop=1;jettySize=auto;html=1;" edge="1" parent="WIyWlLk6GJQsqaUBKTNV-1" source="b_JIdyj_Jr2th4q7lOJ0-8">
          <mxGeometry relative="1" as="geometry">
            <mxPoint x="110" y="-620" as="targetPoint" />
          </mxGeometry>
        </mxCell>
        <mxCell id="b_JIdyj_Jr2th4q7lOJ0-8" value="&lt;div&gt;Leer Input&lt;br&gt;&lt;/div&gt;" style="shape=parallelogram;perimeter=parallelogramPerimeter;whiteSpace=wrap;html=1;fixedSize=1;" vertex="1" parent="WIyWlLk6GJQsqaUBKTNV-1">
          <mxGeometry x="50" y="-750" width="120" height="60" as="geometry" />
        </mxCell>
        <mxCell id="b_JIdyj_Jr2th4q7lOJ0-28" value="" style="edgeStyle=orthogonalEdgeStyle;rounded=0;orthogonalLoop=1;jettySize=auto;html=1;" edge="1" parent="WIyWlLk6GJQsqaUBKTNV-1" source="b_JIdyj_Jr2th4q7lOJ0-14" target="b_JIdyj_Jr2th4q7lOJ0-27">
          <mxGeometry relative="1" as="geometry" />
        </mxCell>
        <mxCell id="b_JIdyj_Jr2th4q7lOJ0-95" style="edgeStyle=orthogonalEdgeStyle;rounded=0;orthogonalLoop=1;jettySize=auto;html=1;exitX=0.5;exitY=1;exitDx=0;exitDy=0;entryX=0.5;entryY=0;entryDx=0;entryDy=0;" edge="1" parent="WIyWlLk6GJQsqaUBKTNV-1" source="b_JIdyj_Jr2th4q7lOJ0-14" target="b_JIdyj_Jr2th4q7lOJ0-17">
          <mxGeometry relative="1" as="geometry" />
        </mxCell>
        <mxCell id="b_JIdyj_Jr2th4q7lOJ0-96" style="edgeStyle=orthogonalEdgeStyle;rounded=0;orthogonalLoop=1;jettySize=auto;html=1;exitX=0.5;exitY=1;exitDx=0;exitDy=0;entryX=0.5;entryY=0;entryDx=0;entryDy=0;" edge="1" parent="WIyWlLk6GJQsqaUBKTNV-1" source="b_JIdyj_Jr2th4q7lOJ0-14" target="b_JIdyj_Jr2th4q7lOJ0-19">
          <mxGeometry relative="1" as="geometry" />
        </mxCell>
        <mxCell id="b_JIdyj_Jr2th4q7lOJ0-100" style="edgeStyle=orthogonalEdgeStyle;rounded=0;orthogonalLoop=1;jettySize=auto;html=1;exitX=0.5;exitY=1;exitDx=0;exitDy=0;entryX=0.5;entryY=0;entryDx=0;entryDy=0;" edge="1" parent="WIyWlLk6GJQsqaUBKTNV-1" source="b_JIdyj_Jr2th4q7lOJ0-14" target="b_JIdyj_Jr2th4q7lOJ0-21">
          <mxGeometry relative="1" as="geometry" />
        </mxCell>
        <mxCell id="b_JIdyj_Jr2th4q7lOJ0-108" style="edgeStyle=orthogonalEdgeStyle;rounded=0;orthogonalLoop=1;jettySize=auto;html=1;exitX=0.5;exitY=1;exitDx=0;exitDy=0;entryX=0.5;entryY=0;entryDx=0;entryDy=0;" edge="1" parent="WIyWlLk6GJQsqaUBKTNV-1" source="b_JIdyj_Jr2th4q7lOJ0-14" target="b_JIdyj_Jr2th4q7lOJ0-23">
          <mxGeometry relative="1" as="geometry" />
        </mxCell>
        <mxCell id="b_JIdyj_Jr2th4q7lOJ0-110" style="edgeStyle=orthogonalEdgeStyle;rounded=0;orthogonalLoop=1;jettySize=auto;html=1;exitX=0.5;exitY=1;exitDx=0;exitDy=0;entryX=0.5;entryY=0;entryDx=0;entryDy=0;" edge="1" parent="WIyWlLk6GJQsqaUBKTNV-1" source="b_JIdyj_Jr2th4q7lOJ0-14" target="b_JIdyj_Jr2th4q7lOJ0-34">
          <mxGeometry relative="1" as="geometry" />
        </mxCell>
        <mxCell id="b_JIdyj_Jr2th4q7lOJ0-14" value="Switch($seleccion)" style="whiteSpace=wrap;html=1;" vertex="1" parent="WIyWlLk6GJQsqaUBKTNV-1">
          <mxGeometry x="50" y="-620" width="130" height="60" as="geometry" />
        </mxCell>
        <mxCell id="b_JIdyj_Jr2th4q7lOJ0-93" value="" style="edgeStyle=orthogonalEdgeStyle;rounded=0;orthogonalLoop=1;jettySize=auto;html=1;" edge="1" parent="WIyWlLk6GJQsqaUBKTNV-1" source="b_JIdyj_Jr2th4q7lOJ0-17" target="b_JIdyj_Jr2th4q7lOJ0-48">
          <mxGeometry relative="1" as="geometry" />
        </mxCell>
        <mxCell id="b_JIdyj_Jr2th4q7lOJ0-17" value="&lt;div&gt;Caso 1&lt;/div&gt;" style="rhombus;whiteSpace=wrap;html=1;" vertex="1" parent="WIyWlLk6GJQsqaUBKTNV-1">
          <mxGeometry x="150" y="-505" width="80" height="80" as="geometry" />
        </mxCell>
        <mxCell id="b_JIdyj_Jr2th4q7lOJ0-124" style="edgeStyle=orthogonalEdgeStyle;rounded=0;orthogonalLoop=1;jettySize=auto;html=1;exitX=0.5;exitY=1;exitDx=0;exitDy=0;entryX=0.25;entryY=0;entryDx=0;entryDy=0;" edge="1" parent="WIyWlLk6GJQsqaUBKTNV-1" source="b_JIdyj_Jr2th4q7lOJ0-19" target="b_JIdyj_Jr2th4q7lOJ0-112">
          <mxGeometry relative="1" as="geometry">
            <Array as="points">
              <mxPoint x="310" y="50" />
              <mxPoint x="395" y="50" />
            </Array>
          </mxGeometry>
        </mxCell>
        <mxCell id="b_JIdyj_Jr2th4q7lOJ0-19" value="Caso 2" style="rhombus;whiteSpace=wrap;html=1;" vertex="1" parent="WIyWlLk6GJQsqaUBKTNV-1">
          <mxGeometry x="270" y="-505" width="80" height="80" as="geometry" />
        </mxCell>
        <mxCell id="b_JIdyj_Jr2th4q7lOJ0-43" value="" style="edgeStyle=orthogonalEdgeStyle;rounded=0;orthogonalLoop=1;jettySize=auto;html=1;" edge="1" parent="WIyWlLk6GJQsqaUBKTNV-1" source="b_JIdyj_Jr2th4q7lOJ0-141" target="b_JIdyj_Jr2th4q7lOJ0-42">
          <mxGeometry relative="1" as="geometry" />
        </mxCell>
        <mxCell id="b_JIdyj_Jr2th4q7lOJ0-147" value="SI" style="edgeLabel;html=1;align=center;verticalAlign=middle;resizable=0;points=[];" vertex="1" connectable="0" parent="b_JIdyj_Jr2th4q7lOJ0-43">
          <mxGeometry x="-0.5429" relative="1" as="geometry">
            <mxPoint as="offset" />
          </mxGeometry>
        </mxCell>
        <mxCell id="b_JIdyj_Jr2th4q7lOJ0-140" value="" style="edgeStyle=orthogonalEdgeStyle;rounded=0;orthogonalLoop=1;jettySize=auto;html=1;" edge="1" parent="WIyWlLk6GJQsqaUBKTNV-1" source="b_JIdyj_Jr2th4q7lOJ0-21" target="b_JIdyj_Jr2th4q7lOJ0-64">
          <mxGeometry relative="1" as="geometry" />
        </mxCell>
        <mxCell id="b_JIdyj_Jr2th4q7lOJ0-21" value="&lt;div&gt;Caso 3&lt;/div&gt;" style="rhombus;whiteSpace=wrap;html=1;" vertex="1" parent="WIyWlLk6GJQsqaUBKTNV-1">
          <mxGeometry x="390" y="-505" width="80" height="80" as="geometry" />
        </mxCell>
        <mxCell id="b_JIdyj_Jr2th4q7lOJ0-123" style="edgeStyle=orthogonalEdgeStyle;rounded=0;orthogonalLoop=1;jettySize=auto;html=1;exitX=0.5;exitY=1;exitDx=0;exitDy=0;entryX=0.5;entryY=0;entryDx=0;entryDy=0;" edge="1" parent="WIyWlLk6GJQsqaUBKTNV-1" source="b_JIdyj_Jr2th4q7lOJ0-23" target="b_JIdyj_Jr2th4q7lOJ0-112">
          <mxGeometry relative="1" as="geometry">
            <Array as="points">
              <mxPoint x="550" y="40" />
              <mxPoint x="435" y="40" />
            </Array>
          </mxGeometry>
        </mxCell>
        <mxCell id="b_JIdyj_Jr2th4q7lOJ0-23" value="Caso 4" style="rhombus;whiteSpace=wrap;html=1;" vertex="1" parent="WIyWlLk6GJQsqaUBKTNV-1">
          <mxGeometry x="510" y="-505" width="80" height="80" as="geometry" />
        </mxCell>
        <mxCell id="b_JIdyj_Jr2th4q7lOJ0-94" style="edgeStyle=orthogonalEdgeStyle;rounded=0;orthogonalLoop=1;jettySize=auto;html=1;exitX=0;exitY=0.5;exitDx=0;exitDy=0;" edge="1" parent="WIyWlLk6GJQsqaUBKTNV-1" source="b_JIdyj_Jr2th4q7lOJ0-27">
          <mxGeometry relative="1" as="geometry">
            <mxPoint x="20" y="-470" as="targetPoint" />
          </mxGeometry>
        </mxCell>
        <mxCell id="b_JIdyj_Jr2th4q7lOJ0-27" value="Caso Default" style="rhombus;whiteSpace=wrap;html=1;" vertex="1" parent="WIyWlLk6GJQsqaUBKTNV-1">
          <mxGeometry x="30" y="-510" width="100" height="90" as="geometry" />
        </mxCell>
        <mxCell id="b_JIdyj_Jr2th4q7lOJ0-133" style="edgeStyle=orthogonalEdgeStyle;rounded=0;orthogonalLoop=1;jettySize=auto;html=1;exitX=0.5;exitY=1;exitDx=0;exitDy=0;entryX=0.75;entryY=0;entryDx=0;entryDy=0;" edge="1" parent="WIyWlLk6GJQsqaUBKTNV-1" source="b_JIdyj_Jr2th4q7lOJ0-32" target="b_JIdyj_Jr2th4q7lOJ0-112">
          <mxGeometry relative="1" as="geometry">
            <Array as="points">
              <mxPoint x="670" y="50" />
              <mxPoint x="475" y="50" />
            </Array>
          </mxGeometry>
        </mxCell>
        <mxCell id="b_JIdyj_Jr2th4q7lOJ0-32" value="Caso 5" style="rhombus;whiteSpace=wrap;html=1;" vertex="1" parent="WIyWlLk6GJQsqaUBKTNV-1">
          <mxGeometry x="630" y="-505" width="80" height="80" as="geometry" />
        </mxCell>
        <mxCell id="b_JIdyj_Jr2th4q7lOJ0-107" value="" style="edgeStyle=orthogonalEdgeStyle;rounded=0;orthogonalLoop=1;jettySize=auto;html=1;" edge="1" parent="WIyWlLk6GJQsqaUBKTNV-1" source="b_JIdyj_Jr2th4q7lOJ0-34" target="b_JIdyj_Jr2th4q7lOJ0-36">
          <mxGeometry relative="1" as="geometry">
            <Array as="points">
              <mxPoint x="780" y="-420" />
              <mxPoint x="760" y="-420" />
            </Array>
          </mxGeometry>
        </mxCell>
        <mxCell id="b_JIdyj_Jr2th4q7lOJ0-34" value="Caso 6" style="rhombus;whiteSpace=wrap;html=1;" vertex="1" parent="WIyWlLk6GJQsqaUBKTNV-1">
          <mxGeometry x="740" y="-505" width="80" height="80" as="geometry" />
        </mxCell>
        <mxCell id="b_JIdyj_Jr2th4q7lOJ0-36" value="Fin" style="strokeWidth=2;html=1;shape=mxgraph.flowchart.terminator;whiteSpace=wrap;" vertex="1" parent="WIyWlLk6GJQsqaUBKTNV-1">
          <mxGeometry x="710" y="-370" width="100" height="60" as="geometry" />
        </mxCell>
        <mxCell id="b_JIdyj_Jr2th4q7lOJ0-145" style="edgeStyle=orthogonalEdgeStyle;rounded=0;orthogonalLoop=1;jettySize=auto;html=1;exitX=0;exitY=0.5;exitDx=0;exitDy=0;" edge="1" parent="WIyWlLk6GJQsqaUBKTNV-1" source="b_JIdyj_Jr2th4q7lOJ0-42">
          <mxGeometry relative="1" as="geometry">
            <mxPoint x="20" y="-50" as="targetPoint" />
            <Array as="points">
              <mxPoint x="20" y="-40" />
            </Array>
          </mxGeometry>
        </mxCell>
        <mxCell id="b_JIdyj_Jr2th4q7lOJ0-42" value="ingresarMatriz($n, $m, $coleccionMatrices)" style="whiteSpace=wrap;html=1;" vertex="1" parent="WIyWlLk6GJQsqaUBKTNV-1">
          <mxGeometry x="360" y="-70" width="140" height="60" as="geometry" />
        </mxCell>
        <mxCell id="b_JIdyj_Jr2th4q7lOJ0-160" style="edgeStyle=orthogonalEdgeStyle;rounded=0;orthogonalLoop=1;jettySize=auto;html=1;exitX=0;exitY=0.5;exitDx=0;exitDy=0;entryX=1;entryY=0.5;entryDx=0;entryDy=0;" edge="1" parent="WIyWlLk6GJQsqaUBKTNV-1" source="b_JIdyj_Jr2th4q7lOJ0-46" target="b_JIdyj_Jr2th4q7lOJ0-159">
          <mxGeometry relative="1" as="geometry" />
        </mxCell>
        <mxCell id="b_JIdyj_Jr2th4q7lOJ0-46" value="generarResumenMatriz($matriz)" style="whiteSpace=wrap;html=1;" vertex="1" parent="WIyWlLk6GJQsqaUBKTNV-1">
          <mxGeometry x="583.75" y="730" width="222.5" height="78" as="geometry" />
        </mxCell>
        <mxCell id="b_JIdyj_Jr2th4q7lOJ0-90" style="edgeStyle=orthogonalEdgeStyle;rounded=0;orthogonalLoop=1;jettySize=auto;html=1;exitX=0;exitY=0.5;exitDx=0;exitDy=0;entryX=0;entryY=0.5;entryDx=0;entryDy=0;" edge="1" parent="WIyWlLk6GJQsqaUBKTNV-1" source="b_JIdyj_Jr2th4q7lOJ0-48" target="b_JIdyj_Jr2th4q7lOJ0-3">
          <mxGeometry relative="1" as="geometry">
            <mxPoint x="20" y="-860" as="targetPoint" />
            <Array as="points">
              <mxPoint x="20" y="-360" />
              <mxPoint x="20" y="-840" />
            </Array>
          </mxGeometry>
        </mxCell>
        <mxCell id="b_JIdyj_Jr2th4q7lOJ0-48" value="&lt;div&gt;echo de count de&lt;br&gt;&lt;/div&gt;&lt;div&gt;&amp;nbsp;matrices[]&lt;/div&gt;" style="shape=parallelogram;perimeter=parallelogramPerimeter;whiteSpace=wrap;html=1;fixedSize=1;" vertex="1" parent="WIyWlLk6GJQsqaUBKTNV-1">
          <mxGeometry x="120" y="-390" width="140" height="60" as="geometry" />
        </mxCell>
        <mxCell id="b_JIdyj_Jr2th4q7lOJ0-61" value="" style="edgeStyle=orthogonalEdgeStyle;rounded=0;orthogonalLoop=1;jettySize=auto;html=1;" edge="1" parent="WIyWlLk6GJQsqaUBKTNV-1" source="b_JIdyj_Jr2th4q7lOJ0-57" target="b_JIdyj_Jr2th4q7lOJ0-60">
          <mxGeometry relative="1" as="geometry" />
        </mxCell>
        <mxCell id="b_JIdyj_Jr2th4q7lOJ0-57" value="mostrarMatrizFormateada($matriz, $matrizRomana = [])" style="whiteSpace=wrap;html=1;" vertex="1" parent="WIyWlLk6GJQsqaUBKTNV-1">
          <mxGeometry x="75" y="502" width="240" height="60" as="geometry" />
        </mxCell>
        <mxCell id="b_JIdyj_Jr2th4q7lOJ0-111" style="edgeStyle=orthogonalEdgeStyle;rounded=0;orthogonalLoop=1;jettySize=auto;html=1;exitX=0;exitY=0.5;exitDx=0;exitDy=0;" edge="1" parent="WIyWlLk6GJQsqaUBKTNV-1" source="b_JIdyj_Jr2th4q7lOJ0-60">
          <mxGeometry relative="1" as="geometry">
            <mxPoint x="20" y="-370" as="targetPoint" />
          </mxGeometry>
        </mxCell>
        <mxCell id="b_JIdyj_Jr2th4q7lOJ0-60" value="Imprimir Matriz Formateada" style="shape=parallelogram;perimeter=parallelogramPerimeter;whiteSpace=wrap;html=1;fixedSize=1;" vertex="1" parent="WIyWlLk6GJQsqaUBKTNV-1">
          <mxGeometry x="135" y="612" width="120" height="60" as="geometry" />
        </mxCell>
        <mxCell id="b_JIdyj_Jr2th4q7lOJ0-139" value="" style="edgeStyle=orthogonalEdgeStyle;rounded=0;orthogonalLoop=1;jettySize=auto;html=1;" edge="1" parent="WIyWlLk6GJQsqaUBKTNV-1" source="b_JIdyj_Jr2th4q7lOJ0-64" target="b_JIdyj_Jr2th4q7lOJ0-138">
          <mxGeometry relative="1" as="geometry" />
        </mxCell>
        <mxCell id="b_JIdyj_Jr2th4q7lOJ0-64" value="&lt;div&gt;Leer Input&lt;/div&gt;&lt;div&gt;NxM&lt;br&gt;&lt;/div&gt;" style="shape=parallelogram;perimeter=parallelogramPerimeter;whiteSpace=wrap;html=1;fixedSize=1;" vertex="1" parent="WIyWlLk6GJQsqaUBKTNV-1">
          <mxGeometry x="370" y="-400" width="120" height="60" as="geometry" />
        </mxCell>
        <mxCell id="b_JIdyj_Jr2th4q7lOJ0-74" value="" style="edgeStyle=orthogonalEdgeStyle;rounded=0;orthogonalLoop=1;jettySize=auto;html=1;" edge="1" parent="WIyWlLk6GJQsqaUBKTNV-1" source="b_JIdyj_Jr2th4q7lOJ0-71" target="b_JIdyj_Jr2th4q7lOJ0-3">
          <mxGeometry relative="1" as="geometry" />
        </mxCell>
        <mxCell id="b_JIdyj_Jr2th4q7lOJ0-71" value="obtenerColeccionMatrices()" style="whiteSpace=wrap;html=1;" vertex="1" parent="WIyWlLk6GJQsqaUBKTNV-1">
          <mxGeometry x="10" y="-990" width="200" height="60" as="geometry" />
        </mxCell>
        <mxCell id="b_JIdyj_Jr2th4q7lOJ0-109" style="edgeStyle=orthogonalEdgeStyle;rounded=0;orthogonalLoop=1;jettySize=auto;html=1;exitX=0.5;exitY=1;exitDx=0;exitDy=0;entryX=0.5;entryY=0;entryDx=0;entryDy=0;" edge="1" parent="WIyWlLk6GJQsqaUBKTNV-1" source="b_JIdyj_Jr2th4q7lOJ0-14" target="b_JIdyj_Jr2th4q7lOJ0-32">
          <mxGeometry relative="1" as="geometry" />
        </mxCell>
        <mxCell id="b_JIdyj_Jr2th4q7lOJ0-114" value="" style="edgeStyle=orthogonalEdgeStyle;rounded=0;orthogonalLoop=1;jettySize=auto;html=1;" edge="1" parent="WIyWlLk6GJQsqaUBKTNV-1" source="b_JIdyj_Jr2th4q7lOJ0-112" target="b_JIdyj_Jr2th4q7lOJ0-113">
          <mxGeometry relative="1" as="geometry" />
        </mxCell>
        <mxCell id="b_JIdyj_Jr2th4q7lOJ0-112" value="&lt;div&gt;buscarMatriz($seleccion, $coleccionMatrices)&lt;/div&gt;" style="whiteSpace=wrap;html=1;" vertex="1" parent="WIyWlLk6GJQsqaUBKTNV-1">
          <mxGeometry x="355" y="67" width="160" height="60" as="geometry" />
        </mxCell>
        <mxCell id="b_JIdyj_Jr2th4q7lOJ0-116" value="" style="edgeStyle=orthogonalEdgeStyle;rounded=0;orthogonalLoop=1;jettySize=auto;html=1;" edge="1" parent="WIyWlLk6GJQsqaUBKTNV-1" source="b_JIdyj_Jr2th4q7lOJ0-113" target="b_JIdyj_Jr2th4q7lOJ0-115">
          <mxGeometry relative="1" as="geometry" />
        </mxCell>
        <mxCell id="b_JIdyj_Jr2th4q7lOJ0-113" value="&lt;div&gt;Leer numero&amp;nbsp;&lt;/div&gt;&lt;div&gt;de matriz a mostrar&lt;/div&gt;" style="shape=parallelogram;perimeter=parallelogramPerimeter;whiteSpace=wrap;html=1;fixedSize=1;" vertex="1" parent="WIyWlLk6GJQsqaUBKTNV-1">
          <mxGeometry x="365" y="167" width="140" height="60" as="geometry" />
        </mxCell>
        <mxCell id="b_JIdyj_Jr2th4q7lOJ0-117" style="edgeStyle=orthogonalEdgeStyle;rounded=0;orthogonalLoop=1;jettySize=auto;html=1;exitX=1;exitY=0.5;exitDx=0;exitDy=0;entryX=1;entryY=0.5;entryDx=0;entryDy=0;" edge="1" parent="WIyWlLk6GJQsqaUBKTNV-1" source="b_JIdyj_Jr2th4q7lOJ0-115" target="b_JIdyj_Jr2th4q7lOJ0-112">
          <mxGeometry relative="1" as="geometry">
            <Array as="points">
              <mxPoint x="535" y="297" />
              <mxPoint x="535" y="97" />
            </Array>
          </mxGeometry>
        </mxCell>
        <mxCell id="b_JIdyj_Jr2th4q7lOJ0-118" value="NO" style="edgeLabel;html=1;align=center;verticalAlign=middle;resizable=0;points=[];" vertex="1" connectable="0" parent="b_JIdyj_Jr2th4q7lOJ0-117">
          <mxGeometry x="-0.8429" y="-2" relative="1" as="geometry">
            <mxPoint as="offset" />
          </mxGeometry>
        </mxCell>
        <mxCell id="b_JIdyj_Jr2th4q7lOJ0-129" value="" style="edgeStyle=orthogonalEdgeStyle;rounded=0;orthogonalLoop=1;jettySize=auto;html=1;" edge="1" parent="WIyWlLk6GJQsqaUBKTNV-1" source="b_JIdyj_Jr2th4q7lOJ0-115" target="b_JIdyj_Jr2th4q7lOJ0-128">
          <mxGeometry relative="1" as="geometry" />
        </mxCell>
        <mxCell id="b_JIdyj_Jr2th4q7lOJ0-130" value="SI" style="edgeLabel;html=1;align=center;verticalAlign=middle;resizable=0;points=[];" vertex="1" connectable="0" parent="b_JIdyj_Jr2th4q7lOJ0-129">
          <mxGeometry x="-0.36" y="3" relative="1" as="geometry">
            <mxPoint as="offset" />
          </mxGeometry>
        </mxCell>
        <mxCell id="b_JIdyj_Jr2th4q7lOJ0-115" value="&lt;div&gt;Matriz&lt;br&gt;&lt;/div&gt;&lt;div&gt;existe? &lt;br&gt;&lt;/div&gt;" style="rhombus;whiteSpace=wrap;html=1;" vertex="1" parent="WIyWlLk6GJQsqaUBKTNV-1">
          <mxGeometry x="395" y="257" width="80" height="80" as="geometry" />
        </mxCell>
        <mxCell id="b_JIdyj_Jr2th4q7lOJ0-119" value="" style="edgeStyle=orthogonalEdgeStyle;rounded=0;orthogonalLoop=1;jettySize=auto;html=1;" edge="1" parent="WIyWlLk6GJQsqaUBKTNV-1" source="b_JIdyj_Jr2th4q7lOJ0-120" target="b_JIdyj_Jr2th4q7lOJ0-121">
          <mxGeometry relative="1" as="geometry" />
        </mxCell>
        <mxCell id="b_JIdyj_Jr2th4q7lOJ0-120" value="Caso 4" style="rhombus;whiteSpace=wrap;html=1;" vertex="1" parent="WIyWlLk6GJQsqaUBKTNV-1">
          <mxGeometry x="395" y="507" width="80" height="80" as="geometry" />
        </mxCell>
        <mxCell id="b_JIdyj_Jr2th4q7lOJ0-121" value="formatearMatrizRomana($matriz)" style="whiteSpace=wrap;html=1;" vertex="1" parent="WIyWlLk6GJQsqaUBKTNV-1">
          <mxGeometry x="332.5" y="627" width="205" height="60" as="geometry" />
        </mxCell>
        <mxCell id="b_JIdyj_Jr2th4q7lOJ0-137" value="" style="edgeStyle=orthogonalEdgeStyle;rounded=0;orthogonalLoop=1;jettySize=auto;html=1;" edge="1" parent="WIyWlLk6GJQsqaUBKTNV-1" source="b_JIdyj_Jr2th4q7lOJ0-125" target="b_JIdyj_Jr2th4q7lOJ0-57">
          <mxGeometry relative="1" as="geometry" />
        </mxCell>
        <mxCell id="b_JIdyj_Jr2th4q7lOJ0-125" value="Caso 2" style="rhombus;whiteSpace=wrap;html=1;" vertex="1" parent="WIyWlLk6GJQsqaUBKTNV-1">
          <mxGeometry x="155" y="387" width="80" height="80" as="geometry" />
        </mxCell>
        <mxCell id="b_JIdyj_Jr2th4q7lOJ0-131" style="edgeStyle=orthogonalEdgeStyle;rounded=0;orthogonalLoop=1;jettySize=auto;html=1;exitX=0;exitY=0.5;exitDx=0;exitDy=0;entryX=1;entryY=0.5;entryDx=0;entryDy=0;" edge="1" parent="WIyWlLk6GJQsqaUBKTNV-1" source="b_JIdyj_Jr2th4q7lOJ0-128" target="b_JIdyj_Jr2th4q7lOJ0-125">
          <mxGeometry relative="1" as="geometry" />
        </mxCell>
        <mxCell id="b_JIdyj_Jr2th4q7lOJ0-132" value="" style="edgeStyle=orthogonalEdgeStyle;rounded=0;orthogonalLoop=1;jettySize=auto;html=1;" edge="1" parent="WIyWlLk6GJQsqaUBKTNV-1" source="b_JIdyj_Jr2th4q7lOJ0-128" target="b_JIdyj_Jr2th4q7lOJ0-120">
          <mxGeometry relative="1" as="geometry" />
        </mxCell>
        <mxCell id="b_JIdyj_Jr2th4q7lOJ0-135" style="edgeStyle=orthogonalEdgeStyle;rounded=0;orthogonalLoop=1;jettySize=auto;html=1;exitX=1;exitY=0.5;exitDx=0;exitDy=0;" edge="1" parent="WIyWlLk6GJQsqaUBKTNV-1" source="b_JIdyj_Jr2th4q7lOJ0-128" target="b_JIdyj_Jr2th4q7lOJ0-134">
          <mxGeometry relative="1" as="geometry" />
        </mxCell>
        <mxCell id="b_JIdyj_Jr2th4q7lOJ0-128" value="Switch($seleccion)" style="whiteSpace=wrap;html=1;" vertex="1" parent="WIyWlLk6GJQsqaUBKTNV-1">
          <mxGeometry x="375" y="397" width="120" height="60" as="geometry" />
        </mxCell>
        <mxCell id="b_JIdyj_Jr2th4q7lOJ0-136" value="" style="edgeStyle=orthogonalEdgeStyle;rounded=0;orthogonalLoop=1;jettySize=auto;html=1;" edge="1" parent="WIyWlLk6GJQsqaUBKTNV-1" source="b_JIdyj_Jr2th4q7lOJ0-134" target="b_JIdyj_Jr2th4q7lOJ0-46">
          <mxGeometry relative="1" as="geometry" />
        </mxCell>
        <mxCell id="b_JIdyj_Jr2th4q7lOJ0-134" value="Caso 5" style="rhombus;whiteSpace=wrap;html=1;" vertex="1" parent="WIyWlLk6GJQsqaUBKTNV-1">
          <mxGeometry x="655" y="387" width="80" height="80" as="geometry" />
        </mxCell>
        <mxCell id="b_JIdyj_Jr2th4q7lOJ0-148" value="" style="edgeStyle=orthogonalEdgeStyle;rounded=0;orthogonalLoop=1;jettySize=auto;html=1;" edge="1" parent="WIyWlLk6GJQsqaUBKTNV-1" source="b_JIdyj_Jr2th4q7lOJ0-138" target="b_JIdyj_Jr2th4q7lOJ0-141">
          <mxGeometry relative="1" as="geometry" />
        </mxCell>
        <mxCell id="b_JIdyj_Jr2th4q7lOJ0-138" value="validarFilasColumnas($n, $m)" style="whiteSpace=wrap;html=1;" vertex="1" parent="WIyWlLk6GJQsqaUBKTNV-1">
          <mxGeometry x="355" y="-300" width="150" height="60" as="geometry" />
        </mxCell>
        <mxCell id="b_JIdyj_Jr2th4q7lOJ0-144" style="edgeStyle=orthogonalEdgeStyle;rounded=0;orthogonalLoop=1;jettySize=auto;html=1;exitX=1;exitY=0.5;exitDx=0;exitDy=0;" edge="1" parent="WIyWlLk6GJQsqaUBKTNV-1" source="b_JIdyj_Jr2th4q7lOJ0-141">
          <mxGeometry relative="1" as="geometry">
            <mxPoint x="480" y="-370" as="targetPoint" />
            <Array as="points">
              <mxPoint x="530" y="-160" />
              <mxPoint x="530" y="-370" />
            </Array>
          </mxGeometry>
        </mxCell>
        <mxCell id="b_JIdyj_Jr2th4q7lOJ0-146" value="NO" style="edgeLabel;html=1;align=center;verticalAlign=middle;resizable=0;points=[];" vertex="1" connectable="0" parent="b_JIdyj_Jr2th4q7lOJ0-144">
          <mxGeometry x="-0.8939" y="-3" relative="1" as="geometry">
            <mxPoint as="offset" />
          </mxGeometry>
        </mxCell>
        <mxCell id="b_JIdyj_Jr2th4q7lOJ0-141" value="N y M son validos?" style="rhombus;whiteSpace=wrap;html=1;" vertex="1" parent="WIyWlLk6GJQsqaUBKTNV-1">
          <mxGeometry x="380" y="-210" width="100" height="100" as="geometry" />
        </mxCell>
        <mxCell id="b_JIdyj_Jr2th4q7lOJ0-150" value="&lt;font color=&quot;#4f4f00&quot; style=&quot;font-size: 17px;&quot;&gt;A&lt;/font&gt;" style="text;html=1;align=center;verticalAlign=middle;resizable=0;points=[];autosize=1;strokeColor=none;fillColor=none;" vertex="1" parent="WIyWlLk6GJQsqaUBKTNV-1">
          <mxGeometry x="135" y="-890" width="30" height="30" as="geometry" />
        </mxCell>
        <mxCell id="b_JIdyj_Jr2th4q7lOJ0-152" value="&lt;font color=&quot;#4f4f00&quot; style=&quot;font-size: 17px;&quot;&gt;B&lt;/font&gt;" style="text;html=1;align=center;verticalAlign=middle;resizable=0;points=[];autosize=1;strokeColor=none;fillColor=none;" vertex="1" parent="WIyWlLk6GJQsqaUBKTNV-1">
          <mxGeometry x="180" y="-990" width="30" height="30" as="geometry" />
        </mxCell>
        <mxCell id="b_JIdyj_Jr2th4q7lOJ0-153" value="&lt;font color=&quot;#4f4f00&quot; style=&quot;font-size: 17px;&quot;&gt;G&lt;/font&gt;" style="text;html=1;align=center;verticalAlign=middle;resizable=0;points=[];autosize=1;strokeColor=none;fillColor=none;" vertex="1" parent="WIyWlLk6GJQsqaUBKTNV-1">
          <mxGeometry x="280" y="502" width="40" height="30" as="geometry" />
        </mxCell>
        <mxCell id="b_JIdyj_Jr2th4q7lOJ0-154" value="&lt;font color=&quot;#4f4f00&quot; style=&quot;font-size: 17px;&quot;&gt;C&lt;/font&gt;" style="text;html=1;align=center;verticalAlign=middle;resizable=0;points=[];autosize=1;strokeColor=none;fillColor=none;" vertex="1" parent="WIyWlLk6GJQsqaUBKTNV-1">
          <mxGeometry x="497.5" y="627" width="40" height="30" as="geometry" />
        </mxCell>
        <mxCell id="b_JIdyj_Jr2th4q7lOJ0-155" style="edgeStyle=orthogonalEdgeStyle;rounded=0;orthogonalLoop=1;jettySize=auto;html=1;exitX=0;exitY=0.5;exitDx=0;exitDy=0;entryX=0.906;entryY=0.965;entryDx=0;entryDy=0;entryPerimeter=0;" edge="1" parent="WIyWlLk6GJQsqaUBKTNV-1" source="b_JIdyj_Jr2th4q7lOJ0-121" target="b_JIdyj_Jr2th4q7lOJ0-57">
          <mxGeometry relative="1" as="geometry" />
        </mxCell>
        <mxCell id="b_JIdyj_Jr2th4q7lOJ0-156" value="&lt;font color=&quot;#4f4f00&quot; style=&quot;font-size: 17px;&quot;&gt;F&lt;/font&gt;" style="text;html=1;align=center;verticalAlign=middle;resizable=0;points=[];autosize=1;strokeColor=none;fillColor=none;" vertex="1" parent="WIyWlLk6GJQsqaUBKTNV-1">
          <mxGeometry x="475" y="-74" width="30" height="30" as="geometry" />
        </mxCell>
        <mxCell id="b_JIdyj_Jr2th4q7lOJ0-158" value="&lt;font color=&quot;#4f4f00&quot; style=&quot;font-size: 17px;&quot;&gt;D E H I J&lt;br&gt;&lt;/font&gt;" style="text;html=1;align=center;verticalAlign=middle;resizable=0;points=[];autosize=1;strokeColor=none;fillColor=none;" vertex="1" parent="WIyWlLk6GJQsqaUBKTNV-1">
          <mxGeometry x="715" y="730" width="90" height="30" as="geometry" />
        </mxCell>
        <mxCell id="b_JIdyj_Jr2th4q7lOJ0-161" style="edgeStyle=orthogonalEdgeStyle;rounded=0;orthogonalLoop=1;jettySize=auto;html=1;exitX=0;exitY=0.5;exitDx=0;exitDy=0;" edge="1" parent="WIyWlLk6GJQsqaUBKTNV-1" source="b_JIdyj_Jr2th4q7lOJ0-159">
          <mxGeometry relative="1" as="geometry">
            <mxPoint x="20" y="630" as="targetPoint" />
          </mxGeometry>
        </mxCell>
        <mxCell id="b_JIdyj_Jr2th4q7lOJ0-159" value="&lt;div&gt;Imprimir Resumen&lt;/div&gt;&lt;div&gt;&amp;nbsp;de Matriz&lt;/div&gt;" style="shape=parallelogram;perimeter=parallelogramPerimeter;whiteSpace=wrap;html=1;fixedSize=1;" vertex="1" parent="WIyWlLk6GJQsqaUBKTNV-1">
          <mxGeometry x="115" y="739" width="150" height="60" as="geometry" />
        </mxCell>
        <mxCell id="b_JIdyj_Jr2th4q7lOJ0-162" value="&lt;font color=&quot;#4f4f00&quot;&gt;A, B, C..: funciones minimas a desarrollar&lt;br&gt;&lt;/font&gt;" style="text;html=1;align=center;verticalAlign=middle;resizable=0;points=[];autosize=1;strokeColor=none;fillColor=none;" vertex="1" parent="WIyWlLk6GJQsqaUBKTNV-1">
          <mxGeometry x="560" y="-1150" width="250" height="30" as="geometry" />
        </mxCell>
      </root>
    </mxGraphModel>
  </diagram>
</mxfile>
